<svg xmlns="http://www.w3.org/2000/svg" viewBox="0 0 1280 800" role="img" aria-labelledby="title desc">
  <title id="title">Casa Film and Music website screenshot placeholder</title>
  <desc id="desc">A warm website screenshot placeholder to replace with the Casa Film and Music website image.</desc>
  <rect width="1280" height="800" fill="#fffaf3"/>
  <rect x="72" y="68" width="1136" height="664" rx="28" fill="#f4e2d5"/>
  <rect x="112" y="112" width="1056" height="72" rx="18" fill="#28323b" opacity="0.92"/>
  <rect x="144" y="137" width="210" height="22" rx="11" fill="#fffaf3" opacity="0.92"/>
  <rect x="836" y="139" width="80" height="18" rx="9" fill="#fffaf3" opacity="0.56"/>
  <rect x="944" y="139" width="80" height="18" rx="9" fill="#fffaf3" opacity="0.56"/>
  <rect x="1052" y="134" width="80" height="28" rx="14" fill="#d86f4b"/>
  <rect x="112" y="212" width="506" height="396" rx="24" fill="#fffaf3"/>
  <rect x="152" y="260" width="318" height="34" rx="17" fill="#28323b"/>
  <rect x="152" y="318" width="390" height="18" rx="9" fill="#28323b" opacity="0.58"/>
  <rect x="152" y="354" width="334" height="18" rx="9" fill="#28323b" opacity="0.36"/>
  <rect x="152" y="420" width="148" height="44" rx="22" fill="#d86f4b"/>
  <rect x="322" y="420" width="148" height="44" rx="22" fill="#e1ecf6"/>
  <rect x="664" y="212" width="504" height="396" rx="24" fill="#28323b" opacity="0.92"/>
  <circle cx="916" cy="410" r="118" fill="#d86f4b" opacity="0.88"/>
  <rect x="748" y="544" width="336" height="22" rx="11" fill="#fffaf3" opacity="0.82"/>
  <rect x="812" y="584" width="208" height="16" rx="8" fill="#fffaf3" opacity="0.52"/>
  <rect x="112" y="640" width="336" height="34" rx="17" fill="#28323b" opacity="0.16"/>
  <rect x="472" y="640" width="336" height="34" rx="17" fill="#28323b" opacity="0.16"/>
  <rect x="832" y="640" width="336" height="34" rx="17" fill="#28323b" opacity="0.16"/>
</svg>
